<svg width="84" height="21" viewBox="0 0 84 21" fill="none" xmlns="http://www.w3.org/2000/svg">
<path d="M14.3077 18.6154L14.2308 20.3077H0.230774V1.38464H13.6923L13.7692 3.15387H2.15385V9.69234H12.1539V11.2308H2.15385V18.6154H14.3077Z" fill="#57AD56" stroke="#57AD56" stroke-width="0.25"/>
<path fill-rule="evenodd" clip-rule="evenodd" d="M25.9231 15.3846H37.0769L39.2308 20.3077H41.3846L32.6923 1.38464H30.4615L21.6923 20.3077H23.7693L25.9231 15.3846ZM26.6154 13.7693L30.6923 4.61548L31.4615 2.69238H31.5385L32.3077 4.61548L36.3077 13.7693H26.6154Z" fill="#57AD56"/>
<path d="M37.0769 15.3846L37.1915 15.3345L37.1587 15.2596H37.0769V15.3846ZM25.9231 15.3846V15.2596H25.8413L25.8086 15.3345L25.9231 15.3846ZM39.2308 20.3077L39.1163 20.3578L39.149 20.4327H39.2308V20.3077ZM41.3846 20.3077V20.4327H41.5796L41.4982 20.2556L41.3846 20.3077ZM32.6923 1.38464L32.8059 1.33247L32.7725 1.25964H32.6923V1.38464ZM30.4615 1.38464V1.25964H30.3817L30.3481 1.33209L30.4615 1.38464ZM21.6923 20.3077L21.5789 20.2552L21.4966 20.4327H21.6923V20.3077ZM23.7693 20.3077V20.4327H23.851L23.8838 20.3578L23.7693 20.3077ZM30.6923 4.61548L30.8066 4.66637L30.8084 4.6619L30.6923 4.61548ZM26.6154 13.7693L26.5012 13.7184L26.4229 13.8943H26.6154V13.7693ZM31.4615 2.69238V2.56738H31.3769L31.3455 2.64596L31.4615 2.69238ZM31.5385 2.69238L31.6545 2.64596L31.6231 2.56738H31.5385V2.69238ZM32.3077 4.61548L32.1916 4.66193L32.1932 4.66553L32.3077 4.61548ZM36.3077 13.7693V13.8943H36.4987L36.4223 13.7192L36.3077 13.7693ZM37.0769 15.2596H25.9231V15.5096H37.0769V15.2596ZM39.3453 20.2576L37.1915 15.3345L36.9624 15.4347L39.1163 20.3578L39.3453 20.2576ZM41.3846 20.1827H39.2308V20.4327H41.3846V20.1827ZM32.5787 1.43682L41.2711 20.3599L41.4982 20.2556L32.8059 1.33247L32.5787 1.43682ZM30.4615 1.50964H32.6923V1.25964H30.4615V1.50964ZM21.8057 20.3603L30.575 1.4372L30.3481 1.33209L21.5789 20.2552L21.8057 20.3603ZM23.7693 20.1827H21.6923V20.4327H23.7693V20.1827ZM25.8086 15.3345L23.6547 20.2576L23.8838 20.3578L26.0376 15.4347L25.8086 15.3345ZM30.5781 4.56462L26.5012 13.7184L26.7296 13.8201L30.8065 4.66634L30.5781 4.56462ZM31.3455 2.64596L30.5763 4.56906L30.8084 4.6619L31.5776 2.73881L31.3455 2.64596ZM31.5385 2.56738H31.4615V2.81738H31.5385V2.56738ZM32.4238 4.56905L31.6545 2.64596L31.4224 2.73881L32.1916 4.6619L32.4238 4.56905ZM36.4223 13.7192L32.4223 4.56543L32.1932 4.66553L36.1932 13.8193L36.4223 13.7192ZM26.6154 13.8943H36.3077V13.6443H26.6154V13.8943Z" fill="#57AD56"/>
<path d="M55.2308 3.15387V20.3077H53.3077V3.15387H46.2308L46.3077 1.38464H62.3846V3.15387H55.2308Z" fill="#57AD56" stroke="#57AD56" stroke-width="0.25"/>
<path d="M76.0769 20.6923C73.4616 20.6923 71.3846 20.0769 69.6923 19.0769L70 17.3846C71.7692 18.3846 73.7692 19 76.1539 19C79.6923 19 81.5385 17.3846 81.5385 15.0769C81.5385 10.0769 70 12.6923 70 6.23077C70 3.46154 72.0769 1 76.9231 1C79.1539 1 81.1539 1.38462 82.7692 2.15385L82.4616 3.76923C80.6923 3.07692 79 2.69231 77 2.69231C73.2308 2.69231 71.8462 4.38462 71.8462 6.07692C71.8462 10.8462 83.3846 8.15385 83.3846 14.9231C83.3077 18.3077 80.8462 20.6923 76.0769 20.6923Z" fill="#57AD56" stroke="#57AD56" stroke-width="0.25"/>
</svg>
